solid ASCII
  facet normal 1.000000e+00 0.000000e+00 0.000000e+00
    outer loop
      vertex   5.293150e+02 1.070767e+03 1.000000e-01
      vertex   5.293150e+02 1.120767e+03 1.000000e-01
      vertex   5.293150e+02 1.070767e+03 1.001000e+02
    endloop
  endfacet
  facet normal 1.000000e+00 -0.000000e+00 0.000000e+00
    outer loop
      vertex   5.293150e+02 1.070767e+03 1.001000e+02
      vertex   5.293150e+02 1.120767e+03 1.000000e-01
      vertex   5.293150e+02 1.120767e+03 1.001000e+02
    endloop
  endfacet
  facet normal 0.000000e+00 -1.000000e+00 0.000000e+00
    outer loop
      vertex   4.793150e+02 1.070767e+03 1.000000e-01
      vertex   5.293150e+02 1.070767e+03 1.000000e-01
      vertex   4.793150e+02 1.070767e+03 1.001000e+02
    endloop
  endfacet
  facet normal 0.000000e+00 -1.000000e+00 0.000000e+00
    outer loop
      vertex   4.793150e+02 1.070767e+03 1.001000e+02
      vertex   5.293150e+02 1.070767e+03 1.000000e-01
      vertex   5.293150e+02 1.070767e+03 1.001000e+02
    endloop
  endfacet
  facet normal -1.000000e+00 0.000000e+00 0.000000e+00
    outer loop
      vertex   4.793150e+02 1.120767e+03 1.000000e-01
      vertex   4.793150e+02 1.070767e+03 1.000000e-01
      vertex   4.793150e+02 1.120767e+03 1.001000e+02
    endloop
  endfacet
  facet normal -1.000000e+00 -0.000000e+00 0.000000e+00
    outer loop
      vertex   4.793150e+02 1.120767e+03 1.001000e+02
      vertex   4.793150e+02 1.070767e+03 1.000000e-01
      vertex   4.793150e+02 1.070767e+03 1.001000e+02
    endloop
  endfacet
  facet normal 0.000000e+00 1.000000e+00 -0.000000e+00
    outer loop
      vertex   5.293150e+02 1.120767e+03 1.000000e-01
      vertex   4.793150e+02 1.120767e+03 1.000000e-01
      vertex   5.293150e+02 1.120767e+03 1.001000e+02
    endloop
  endfacet
  facet normal 0.000000e+00 1.000000e+00 0.000000e+00
    outer loop
      vertex   5.293150e+02 1.120767e+03 1.001000e+02
      vertex   4.793150e+02 1.120767e+03 1.000000e-01
      vertex   4.793150e+02 1.120767e+03 1.001000e+02
    endloop
  endfacet
  facet normal 0.000000e+00 0.000000e+00 1.000000e+00
    outer loop
      vertex   5.293150e+02 1.120767e+03 1.001000e+02
      vertex   4.793150e+02 1.120767e+03 1.001000e+02
      vertex   5.293150e+02 1.070767e+03 1.001000e+02
    endloop
  endfacet
  facet normal 0.000000e+00 0.000000e+00 1.000000e+00
    outer loop
      vertex   5.293150e+02 1.070767e+03 1.001000e+02
      vertex   4.793150e+02 1.120767e+03 1.001000e+02
      vertex   4.793150e+02 1.070767e+03 1.001000e+02
    endloop
  endfacet
  facet normal 0.000000e+00 0.000000e+00 -1.000000e+00
    outer loop
      vertex   4.793150e+02 1.120767e+03 1.000000e-01
      vertex   5.293150e+02 1.120767e+03 1.000000e-01
      vertex   4.793150e+02 1.070767e+03 1.000000e-01
    endloop
  endfacet
  facet normal 0.000000e+00 0.000000e+00 -1.000000e+00
    outer loop
      vertex   4.793150e+02 1.070767e+03 1.000000e-01
      vertex   5.293150e+02 1.120767e+03 1.000000e-01
      vertex   5.293150e+02 1.070767e+03 1.000000e-01
    endloop
  endfacet
endsolid
